<svg xmlns="http://www.w3.org/2000/svg" xmlns:xlink="http://www.w3.org/1999/xlink" width="23.77" height="22.44" viewBox="0 0 23.77 22.44">
  <defs>
    <clipPath id="clip-path">
      <rect id="Rectangle_4527" data-name="Rectangle 4527" width="23.77" height="22.44" fill="none"/>
    </clipPath>
  </defs>
  <g id="bin-icon" clip-path="url(#clip-path)">
    <path id="Path_2410" data-name="Path 2410" d="M23.172.964A2.838,2.838,0,0,0,21.007,0H2.761A2.848,2.848,0,0,0,.621.935a2.407,2.407,0,0,0-.6,1.944l3.065,17.3A2.694,2.694,0,0,0,5.832,22.44H18.087a2.715,2.715,0,0,0,2.734-2.179L23.743,2.912A2.389,2.389,0,0,0,23.172.964M19.4,20.033a1.274,1.274,0,0,1-1.314.974H5.832A1.269,1.269,0,0,1,4.508,19.97L1.443,2.667A.983.983,0,0,1,1.7,1.883a1.407,1.407,0,0,1,1.06-.451H21.007a1.4,1.4,0,0,1,1.072.463.98.98,0,0,1,.242.789Z" transform="translate(0 0.001)" fill="#fff"/>
    <path id="Path_2411" data-name="Path 2411" d="M8.547,11.525h0l-3.232.021a.224.224,0,0,1-.2-.337L6.484,8.853l.078.266a.572.572,0,0,0,.551.414.552.552,0,0,0,.16-.023.573.573,0,0,0,.4-.709L7.218,7.25a.576.576,0,0,0-.692-.4l-1.642.405a.573.573,0,0,0-.422.693.579.579,0,0,0,.7.418l.321-.079L4.12,10.637a1.369,1.369,0,0,0,1.194,2.054l3.235-.02a.573.573,0,1,0,0-1.146" transform="translate(1.726 2.956)" fill="#fff"/>
    <path id="Path_2412" data-name="Path 2412" d="M13.013,7.65a.578.578,0,0,0-.786-.213.57.57,0,0,0-.214.781L13.6,10.989a.223.223,0,0,1-.194.335h-2.75l.262-.259a.575.575,0,0,0-.813-.812L8.956,11.394a.57.57,0,0,0-.016.795l1.15,1.236a.575.575,0,1,0,.845-.779l-.164-.176H13.4a1.362,1.362,0,0,0,1.191-.686,1.347,1.347,0,0,0,0-1.366Z" transform="translate(3.856 3.183)" fill="#fff"/>
    <path id="Path_2413" data-name="Path 2413" d="M10.531,6.483a.58.58,0,0,0-.7.414.572.572,0,0,0,.416.7l1.571.4a.605.605,0,0,0,.142.017.573.573,0,0,0,.551-.41l.482-1.614a.575.575,0,0,0-1.1-.327l-.089.3L10.536,3.771a1.379,1.379,0,0,0-2.378-.007L6.6,6.349a.572.572,0,0,0,.2.786.579.579,0,0,0,.79-.2L9.149,4.344a.22.22,0,0,1,.2-.112.217.217,0,0,1,.193.11l1.275,2.213Z" transform="translate(2.861 1.335)" fill="#fff"/>
  </g>
</svg>
