<svg xmlns="http://www.w3.org/2000/svg" width="28.171" height="28.708" viewBox="0 0 28.171 28.708">
  <g id="dark-n-icon" transform="translate(0)">
    <path id="Path_226" data-name="Path 226" d="M28,278h0c-3.331-.014-4.57-4.564-5.661-8.58-.835-3.068-1.7-6.24-3.164-6.24h-.013c-1.325.017-1.945,1.8-2.848,4.708-1.292,4.162-3.06,9.863-9.7,9.9h0a.751.751,0,0,1,0-1.5c5.615-.034,7.072-4.728,8.357-8.871.911-2.936,1.773-5.709,4.18-5.74h.036c2.531,0,3.5,3.558,4.524,7.325,1,3.681,2.037,7.486,4.3,7.495a.751.751,0,0,1,0,1.5" transform="translate(-2.362 -252.026)" fill="#ff2f00"/>
    <path id="Path_227" data-name="Path 227" d="M28,278c-8.333,0-11.413-2.495-13.888-4.5a10.776,10.776,0,0,0-3.664-2.243c-1.188-.366-1.649-.162-1.893.02-.911.689-1.137,3.258-1.239,5.68a.712.712,0,0,1-.74.716.735.735,0,0,1-.678-.782c.146-3.474.5-5.828,1.831-6.833a3.4,3.4,0,0,1,3.117-.241,12.037,12.037,0,0,1,4.13,2.493C17.406,274.269,20.154,276.5,28,276.5a.751.751,0,0,1,0,1.5" transform="translate(-2.362 -252.026)" fill="#fc6c00"/>
    <path id="Path_228" data-name="Path 228" d="M28,278h0c-8.706-.021-10.771-4.281-12.136-7.1-.757-1.56-1.129-2.3-2.082-2.3-1.127.01-1.682,1.4-2.463,3.678-.822,2.4-1.845,5.4-4.71,5.4a.751.751,0,0,1,0-1.5c1.738,0,2.464-1.744,3.375-4.4.781-2.287,1.589-4.65,3.786-4.67H13.8c1.816,0,2.55,1.514,3.327,3.118,1.281,2.643,3.036,6.263,10.876,6.283a.751.751,0,0,1,0,1.5" transform="translate(-2.362 -252.026)" fill="#fecc00"/>
    <path id="Path_229" data-name="Path 229" d="M29.26,277.252H7.965a3.5,3.5,0,0,1-3.494-3.51l.08-22.311,1.426.006-.08,22.31a2.069,2.069,0,0,0,2.067,2.077h21.3Z" transform="translate(-2.362 -250.722)" fill="#fff"/>
    <path id="Path_230" data-name="Path 230" d="M3.112,256.307a.75.75,0,0,1-.666-1.1l2.112-4.085a.753.753,0,0,1,.655-.4.844.844,0,0,1,.666.383l2.243,4a.75.75,0,0,1-1.309.734l-1.56-2.784L3.778,255.9a.749.749,0,0,1-.666.405" transform="translate(-2.362 -250.722)" fill="#fff"/>
    <path id="Path_231" data-name="Path 231" d="M27.066,280.734a.75.75,0,0,1-.368-1.4l2.784-1.562L26.633,276.3a.75.75,0,1,1,.69-1.332l4.085,2.112a.75.75,0,0,1,.022,1.32l-4,2.243a.747.747,0,0,1-.366.1" transform="translate(-3.642 -252.026)" fill="#fff"/>
    <path id="Path_232" data-name="Path 232" d="M29.943,258.279H28.351l-2.886-4.4a6.769,6.769,0,0,1-.351-.581h-.02c.027.247.039.625.039,1.132v3.848H23.644v-7h1.7l2.779,4.263c.127.192.244.383.351.571h.02a7.309,7.309,0,0,1-.039-.962v-3.872h1.489Z" transform="translate(-3.642 -250.722)" fill="#fff"/>
  </g>
</svg>
