<svg id="drag-panel-icon" xmlns="http://www.w3.org/2000/svg" width="6" height="18" viewBox="0 0 6 18">
  <circle id="Ellipse_296" data-name="Ellipse 296" cx="1" cy="1" r="1" transform="translate(0 10) rotate(-90)" fill="#fff"/>
  <circle id="Ellipse_297" data-name="Ellipse 297" cx="1" cy="1" r="1" transform="translate(0 2) rotate(-90)" fill="#fff"/>
  <circle id="Ellipse_298" data-name="Ellipse 298" cx="1" cy="1" r="1" transform="translate(0 14) rotate(-90)" fill="#fff"/>
  <circle id="Ellipse_299" data-name="Ellipse 299" cx="1" cy="1" r="1" transform="translate(0 6) rotate(-90)" fill="#fff"/>
  <circle id="Ellipse_300" data-name="Ellipse 300" cx="1" cy="1" r="1" transform="translate(0 18) rotate(-90)" fill="#fff"/>
  <circle id="Ellipse_301" data-name="Ellipse 301" cx="1" cy="1" r="1" transform="translate(4 10) rotate(-90)" fill="#fff"/>
  <circle id="Ellipse_302" data-name="Ellipse 302" cx="1" cy="1" r="1" transform="translate(4 2) rotate(-90)" fill="#fff"/>
  <circle id="Ellipse_303" data-name="Ellipse 303" cx="1" cy="1" r="1" transform="translate(4 14) rotate(-90)" fill="#fff"/>
  <circle id="Ellipse_304" data-name="Ellipse 304" cx="1" cy="1" r="1" transform="translate(4 6) rotate(-90)" fill="#fff"/>
  <circle id="Ellipse_305" data-name="Ellipse 305" cx="1" cy="1" r="1" transform="translate(4 18) rotate(-90)" fill="#fff"/>
</svg>
