<svg xmlns="http://www.w3.org/2000/svg" width="26" height="26" viewBox="0 0 26 26">
  <g id="function-light" transform="translate(0.343 -0.047)">
    <rect id="Rectangle_2718" data-name="Rectangle 2718" width="26" height="26" transform="translate(-0.343 0.047)" fill="none"/>
    <path id="Line_277" data-name="Line 277" d="M11,1.05H0A1.05,1.05,0,0,1-1.05,0,1.05,1.05,0,0,1,0-1.05H11A1.05,1.05,0,0,1,12.05,0,1.05,1.05,0,0,1,11,1.05Z" transform="translate(7.657 13.047)" fill="#fff"/>
    <path id="Path_1655" data-name="Path 1655" d="M58.944,58.719H56a1.05,1.05,0,0,1,0-2.1h2.941a2.172,2.172,0,0,0,2.13-1.78l2.248-12.386a4.274,4.274,0,0,1,4.193-3.5h2.944a1.05,1.05,0,0,1,0,2.1H67.515a2.172,2.172,0,0,0-2.13,1.78L63.137,55.216A4.274,4.274,0,0,1,58.944,58.719Z" transform="translate(-50.406 -35.952)" fill="#fff"/>
  </g>
</svg>
