<svg xmlns="http://www.w3.org/2000/svg" xmlns:xlink="http://www.w3.org/1999/xlink" width="20.551" height="23.178" viewBox="0 0 20.551 23.178">
  <defs>
    <clipPath id="clip-path">
      <rect id="Rectangle_203" data-name="Rectangle 203" width="20.551" height="23.178" fill="#fff"/>
    </clipPath>
  </defs>
  <g id="Group_20" data-name="Group 20" transform="translate(0 0)">
    <g id="Group_19" data-name="Group 19" transform="translate(0 0)" clip-path="url(#clip-path)">
      <path id="Path_53" data-name="Path 53" d="M4.209,7.445a4.212,4.212,0,0,1,3.1,1.37l5.125-3.145a4.044,4.044,0,0,1-.3-1.526,4.209,4.209,0,0,1,8.417,0,4.208,4.208,0,0,1-7.314,2.775L8.115,10.062a3.979,3.979,0,0,1,0,3.052l5.124,3.145a4.115,4.115,0,1,1-1.1,2.773,4.043,4.043,0,0,1,.3-1.525L7.314,14.363a4.172,4.172,0,1,1-3.1-6.918m12.134-.633a2.693,2.693,0,0,0,2.71-2.669,2.71,2.71,0,0,0-5.419,0,2.692,2.692,0,0,0,2.709,2.669m0,14.89a2.668,2.668,0,1,0-2.709-2.669A2.693,2.693,0,0,0,16.343,21.7M4.209,14.257A2.668,2.668,0,1,0,1.5,11.588a2.693,2.693,0,0,0,2.71,2.669" transform="translate(-0.002 0)" fill="#fff"/>
    </g>
  </g>
</svg>
