<svg xmlns="http://www.w3.org/2000/svg" xmlns:xlink="http://www.w3.org/1999/xlink" width="23.648" height="23.649" viewBox="0 0 23.648 23.649">
  <defs>
    <clipPath id="clip-path">
      <rect id="Rectangle_3895" data-name="Rectangle 3895" width="23.648" height="23.649" fill="none"/>
    </clipPath>
  </defs>
  <g id="Group_3053" data-name="Group 3053" transform="translate(0 0)">
    <g id="Group_3052" data-name="Group 3052" transform="translate(0 0)" clip-path="url(#clip-path)">
      <path id="Path_2404" data-name="Path 2404" d="M20.1,23.649H3.544A3.548,3.548,0,0,1,0,20.105V3.544A3.548,3.548,0,0,1,3.544,0H20.1a3.548,3.548,0,0,1,3.544,3.544V20.105A3.548,3.548,0,0,1,20.1,23.649M3.544,1.268A2.279,2.279,0,0,0,1.268,3.544V20.105a2.279,2.279,0,0,0,2.276,2.276H20.1a2.279,2.279,0,0,0,2.277-2.276V3.544A2.279,2.279,0,0,0,20.1,1.268Z" transform="translate(0 0)" fill="#fff"/>
      <path id="Path_2405" data-name="Path 2405" d="M17.56,6.006l-1.673.335H8.693L7.057,6.006H6.816l-.539,3.16.39.111.167-.093.837-1.71L8.934,6.9h2.361V16.21l-.148,1.637-1.339.316v.371H14.79v-.371l-1.319-.316-.112-1.637V6.9h2.287l1.245.558.855,1.729.186.093.37-.111-.519-3.16Z" transform="translate(-0.466 -0.445)" fill="#fff"/>
    </g>
  </g>
</svg>
