<svg xmlns="http://www.w3.org/2000/svg" xmlns:xlink="http://www.w3.org/1999/xlink" width="21.401" height="20.759" viewBox="0 0 21.401 20.759">
  <defs>
    <clipPath id="clip-path">
      <rect id="Rectangle_4282" data-name="Rectangle 4282" width="21.401" height="20.759" fill="none"/>
    </clipPath>
  </defs>
  <g id="Group_3253" data-name="Group 3253" transform="translate(0 0)">
    <g id="Group_3252" data-name="Group 3252" transform="translate(0 0)" clip-path="url(#clip-path)">
      <path id="Path_2144" data-name="Path 2144" d="M20.612,3.237,18.239.831a2.786,2.786,0,0,0-2-.831H8.71A3.4,3.4,0,0,0,5.316,3.394V4.675H3.394A3.4,3.4,0,0,0,0,8.068v9.3a3.4,3.4,0,0,0,3.394,3.394h9.3a3.4,3.4,0,0,0,3.394-3.394V16.084h1.921A3.4,3.4,0,0,0,21.4,12.691V5.157a2.7,2.7,0,0,0-.789-1.92M10.55,2.009a.473.473,0,0,1,.473-.473h4.183a.473.473,0,0,1,.473.473v2.2a.473.473,0,0,1-.473.473H11.023a.473.473,0,0,1-.473-.473Zm-3.7,1.385A1.861,1.861,0,0,1,8.71,1.536h.4a1.959,1.959,0,0,0-.1.473v2.2a1.958,1.958,0,0,0,.094.464H6.852ZM5.235,6.683a.473.473,0,0,1,.471-.473H9.891a.474.474,0,0,1,.473.473v2.2a.474.474,0,0,1-.473.473H5.707a.473.473,0,0,1-.471-.473Zm6.689,11.891a.65.65,0,0,1-.65.65H4.856a.65.65,0,0,1-.65-.65v-4.44a.651.651,0,0,1,.65-.65h6.419a.651.651,0,0,1,.65.65Zm2.626-1.209a1.858,1.858,0,0,1-1.156,1.717,2.134,2.134,0,0,0,.066-.508v-4.44a2.188,2.188,0,0,0-2.185-2.185H4.856a2.189,2.189,0,0,0-2.185,2.185v4.44a2.125,2.125,0,0,0,.069.518,1.851,1.851,0,0,1-1.2-1.726v-9.3A1.861,1.861,0,0,1,3.394,6.21h.4a1.944,1.944,0,0,0-.1.473v2.2a2.009,2.009,0,0,0,2.007,2.009H9.891A2.01,2.01,0,0,0,11.9,8.885v-2.2c0-.014-.008-.025-.008-.037L14.2,8.993a1.183,1.183,0,0,1,.346.838Zm1.089-9.031,0,0,0,0m1.6,5.565a.649.649,0,0,1-.65.65h-.5V9.831a2.7,2.7,0,0,0-.2-1.021h.7a.65.65,0,0,1,.65.65Zm2.626-1.209a1.859,1.859,0,0,1-1.155,1.717,2.215,2.215,0,0,0,.064-.508V9.46A2.188,2.188,0,0,0,16.59,7.274H14.667L12.924,5.505a2.739,2.739,0,0,0-.415-.344,2.739,2.739,0,0,1,.415.344l.7.714h1.579a2.009,2.009,0,0,0,2.009-2.009v-2.2c0-.014-.008-.025-.008-.037l2.314,2.346a1.181,1.181,0,0,1,.344.838Zm-7.813-7.78c.02.009.038.021.058.031-.02-.009-.038-.021-.058-.031" transform="translate(0 0)" fill="#fff"/>
    </g>
  </g>
</svg>
