<svg xmlns="http://www.w3.org/2000/svg" xmlns:xlink="http://www.w3.org/1999/xlink" width="20.55" height="21.15" viewBox="0 0 20.55 21.15">
  <defs>
    <clipPath id="clip-path">
      <rect id="Rectangle_196" data-name="Rectangle 196" width="20.55" height="21.15" fill="#fff"/>
    </clipPath>
  </defs>
  <g id="Group_12" data-name="Group 12" transform="translate(0 134)">
    <g id="Group_11" data-name="Group 11" transform="translate(0 -134)" clip-path="url(#clip-path)">
      <path id="Path_42" data-name="Path 42" d="M10.279,0C6.464,0,.009.7.009,3.3V17.855H0c0,2.6,6.455,3.3,10.27,3.3s10.271-.694,10.271-3.3h.009V3.3C20.55.7,14.094,0,10.279,0m0,1.511c5.318,0,8.553,1.172,8.757,1.786-.2.613-3.44,1.784-8.757,1.784C4.935,5.081,1.692,3.9,1.52,3.31v0c.172-.612,3.413-1.8,8.759-1.8M1.52,5.157c2.139,1.094,6.091,1.435,8.759,1.435s6.621-.341,8.76-1.435V7.979c-.172.612-3.413,1.8-8.76,1.8S1.685,8.588,1.52,7.99Zm0,4.693c2.139,1.094,6.091,1.437,8.759,1.437s6.621-.343,8.76-1.437v2.824c-.172.61-3.413,1.795-8.76,1.795S1.685,13.281,1.52,12.683Zm17.512,7.993c-.166.61-3.41,1.8-8.762,1.8s-8.594-1.186-8.759-1.784H1.52v-3.31c2.139,1.094,6.091,1.435,8.759,1.435s6.621-.341,8.76-1.435v3.3Z" transform="translate(0 0)" fill="#fff"/>
    </g>
  </g>
</svg>
