<svg xmlns="http://www.w3.org/2000/svg" xmlns:xlink="http://www.w3.org/1999/xlink" width="19.483" height="19.477" viewBox="0 0 19.483 19.477">
  <defs>
    <clipPath id="clip-path">
      <rect id="Rectangle_4283" data-name="Rectangle 4283" width="19.483" height="19.477" fill="none"/>
    </clipPath>
  </defs>
  <g id="Group_3255" data-name="Group 3255" transform="translate(0 0)">
    <g id="Group_3254" data-name="Group 3254" transform="translate(0 0)" clip-path="url(#clip-path)">
      <path id="Path_2147" data-name="Path 2147" d="M10.283,6.589l.017-.081a11.077,11.077,0,0,0,.435-4.734A2.012,2.012,0,0,0,8.806,0,1.879,1.879,0,0,0,6.847,1.259C6.459,2.665,6.8,4.59,7.438,7.041c-.8,1.9-2.071,4.663-3,6.306-1.736.9-4.064,2.281-4.41,4.029a1.707,1.707,0,0,0,.2,1.1,1.849,1.849,0,0,0,.968.881,1.836,1.836,0,0,0,.634.116c1.031,0,2.7-.832,4.933-4.657.34-.112.691-.228,1.033-.346a32.6,32.6,0,0,1,4.744-1.356,11.452,11.452,0,0,0,4.817,1.454,1.946,1.946,0,0,0,1.953-1.2,2.234,2.234,0,0,0-.363-2.324c-.775-.763-2.658-.962-5.59-.6a7.241,7.241,0,0,1-3.075-3.859M3.85,15.5a9.179,9.179,0,0,1-1.765,2.036A8.995,8.995,0,0,1,3.85,15.5M8.987,1.685a5.233,5.233,0,0,1,.029,2.9,7.12,7.12,0,0,1-.158-3.017c.048.008.089.042.129.118M8.893,8.755a9.582,9.582,0,0,0,2.295,2.71,22.043,22.043,0,0,0-3.455,1.184c-.245.1-.487.2-.72.294A34.639,34.639,0,0,0,8.893,8.755M18.021,12.6c.006.012.012.029-.023.052h-.012l-.012.017c-.048.031-.529.311-2.6-.5,2.381-.11,2.64.429,2.646.435" transform="translate(0 0.001)" fill="#fff"/>
    </g>
  </g>
</svg>
