<svg xmlns="http://www.w3.org/2000/svg" xmlns:xlink="http://www.w3.org/1999/xlink" width="19.703" height="19.704" viewBox="0 0 19.703 19.704">
  <defs>
    <clipPath id="clip-path">
      <rect id="Rectangle_4281" data-name="Rectangle 4281" width="19.703" height="19.704" fill="none"/>
    </clipPath>
  </defs>
  <g id="Group_3251" data-name="Group 3251" transform="translate(0 0)">
    <g id="Group_3250" data-name="Group 3250" transform="translate(0 0)" clip-path="url(#clip-path)">
      <path id="Path_2143" data-name="Path 2143" d="M.728,19.7a.714.714,0,0,1-.72-.72V14.268a.723.723,0,1,1,1.441-.113.612.612,0,0,1,0,.113v2.964l5.124-5.124A.724.724,0,0,1,7.609,13.12l-.014.012L2.473,18.256H5.438a.723.723,0,0,1,0,1.441Zm13.54,0a.724.724,0,1,1-.056-1.447.3.3,0,0,1,.056,0h2.966L12.11,13.132a.723.723,0,0,1,1.022-1.023l5.126,5.124v-2.97a.724.724,0,0,1,1.441,0v4.713a.723.723,0,0,1-.722.72ZM6.569,7.6,1.445,2.477V5.431A.724.724,0,0,1,0,5.544c0-.036,0-.075,0-.113V.725A.7.7,0,0,1,.059.448.721.721,0,0,1,.449.056.764.764,0,0,1,.688,0H5.476a.724.724,0,0,1-.038,1.447H2.473L7.6,6.572a.722.722,0,1,1-1.01,1.034l-.012-.012Zm5.538,0a.721.721,0,0,1,0-1.022l0,0,5.124-5.124H14.266A.725.725,0,1,1,14.209.005h4.768a.683.683,0,0,1,.276.057.724.724,0,0,1,.394.39A.764.764,0,0,1,19.7.692V5.471a.725.725,0,0,1-1.448-.036V2.468L13.13,7.59a.723.723,0,0,1-1.023,0Z" transform="translate(0 -0.001)" fill="#fff"/>
    </g>
  </g>
</svg>
