<svg xmlns="http://www.w3.org/2000/svg" xmlns:xlink="http://www.w3.org/1999/xlink" width="24.555" height="24.555" viewBox="0 0 24.555 24.555">
  <defs>
    <clipPath id="clip-path">
      <rect id="Rectangle_3891" data-name="Rectangle 3891" width="24.555" height="24.555" fill="none"/>
    </clipPath>
  </defs>
  <g id="Group_3049" data-name="Group 3049" transform="translate(0 0)">
    <g id="Group_3049-2" data-name="Group 3049" transform="translate(0 0)" clip-path="url(#clip-path)">
      <path id="Path_2395" data-name="Path 2395" d="M20.967,23.988H3.771A3.021,3.021,0,0,1,.75,20.967V3.772A3.021,3.021,0,0,1,3.771.75h17.2a3.021,3.021,0,0,1,3.022,3.022v17.2a3.021,3.021,0,0,1-3.022,3.022" transform="translate(-0.092 -0.092)" fill="#fe9000"/>
      <path id="Path_2396" data-name="Path 2396" d="M21.487,8.871a3.165,3.165,0,1,1-3.165-3.165,3.166,3.166,0,0,1,3.165,3.165" transform="translate(-1.852 -0.697)" fill="#fce900"/>
      <path id="Path_2397" data-name="Path 2397" d="M22.536,26.058a3.012,3.012,0,0,0,2.863-2.1l-5.6-5.39a2.97,2.97,0,0,0-4.2,0l-2,2,5.7,5.488Z" transform="translate(-1.661 -2.162)" fill="#ff5b00"/>
      <path id="Path_2398" data-name="Path 2398" d="M2.413,14.908.75,16.571v6.019a3.021,3.021,0,0,0,3.022,3.021H17.731L6.612,14.908a2.969,2.969,0,0,0-4.2,0" transform="translate(-0.092 -1.715)" fill="#ff2f00"/>
      <path id="Path_2399" data-name="Path 2399" d="M20.875,24.555H3.679A3.683,3.683,0,0,1,0,20.875V3.68A3.683,3.683,0,0,1,3.679,0h17.2a3.683,3.683,0,0,1,3.679,3.68v17.2a3.683,3.683,0,0,1-3.679,3.68M3.679,1.317A2.365,2.365,0,0,0,1.317,3.68v17.2a2.365,2.365,0,0,0,2.362,2.363h17.2a2.365,2.365,0,0,0,2.362-2.363V3.68a2.365,2.365,0,0,0-2.362-2.363Z" transform="translate(0 0)" fill="#fff"/>
    </g>
  </g>
</svg>
