<svg xmlns="http://www.w3.org/2000/svg" xmlns:xlink="http://www.w3.org/1999/xlink" width="24.349" height="24.758" viewBox="0 0 24.349 24.758">
  <defs>
    <clipPath id="clip-path">
      <rect id="Rectangle_450" data-name="Rectangle 450" width="24.349" height="24.758" fill="none"/>
    </clipPath>
  </defs>
  <g id="Group_402" data-name="Group 402" transform="translate(0 0)">
    <g id="Group_401" data-name="Group 401" transform="translate(0 0)" clip-path="url(#clip-path)">
      <path id="Path_216" data-name="Path 216" d="M22.514,8.917a.808.808,0,0,0-.808.808V17.84a4.757,4.757,0,0,1-4.752,4.754H6.368A4.757,4.757,0,0,1,1.616,17.84V7.258A4.758,4.758,0,0,1,6.368,2.5h7.208a.808.808,0,0,0,0-1.616H6.368A6.376,6.376,0,0,0,0,7.258V17.84a6.376,6.376,0,0,0,6.368,6.37H16.954a6.376,6.376,0,0,0,6.368-6.37V9.725a.808.808,0,0,0-.808-.808" transform="translate(0 0.547)" fill="#fff"/>
      <path id="Path_217" data-name="Path 217" d="M18.411,4.3l-.4-.163A5.91,5.91,0,0,1,14.782.908L14.618.5a.808.808,0,0,0-1.5,0l-.1.25A6.223,6.223,0,0,1,9.58,4.195l-.25.1a.808.808,0,0,0,0,1.5,6.788,6.788,0,0,1,3.786,3.786.807.807,0,0,0,.75.509.772.772,0,0,0,.753-.512A6.724,6.724,0,0,1,18.4,5.8a.808.808,0,0,0,.008-1.5M13.867,7.528a8.442,8.442,0,0,0-2.453-2.463A7.888,7.888,0,0,0,13.859,2.64,7.549,7.549,0,0,0,16.3,5.074a8.379,8.379,0,0,0-2.437,2.454" transform="translate(5.434 0)" fill="#fff"/>
    </g>
  </g>
</svg>
