<svg xmlns="http://www.w3.org/2000/svg" xmlns:xlink="http://www.w3.org/1999/xlink" width="22.908" height="20.65" viewBox="0 0 22.908 20.65">
  <defs>
    <clipPath id="clip-path">
      <rect id="Rectangle_176" data-name="Rectangle 176" width="22.908" height="20.65" fill="#fff"/>
    </clipPath>
  </defs>
  <g id="Group_1" data-name="Group 1" clip-path="url(#clip-path)">
    <path id="Path_36" data-name="Path 36" d="M22.5,8.271A2.375,2.375,0,0,0,20.65,7.229V7.087a3.71,3.71,0,0,0-1.106-2.654,3.848,3.848,0,0,0-2.66-1.074c-.207,0-2.477,0-3.91,0h0a1.8,1.8,0,0,1-1.34-.6L10.286,1.259A3.8,3.8,0,0,0,7.462,0h-3.4A4.07,4.07,0,0,0,0,4.065v12.52a4.025,4.025,0,0,0,.15,1.036l-.068.035c.056.111.115.2.173.3A4.059,4.059,0,0,0,4.065,20.65H15.827A4.078,4.078,0,0,0,19.55,18.2l.012,0,3.167-7.7A2.376,2.376,0,0,0,22.5,8.271M1.519,4.065A2.549,2.549,0,0,1,4.065,1.519h3.4a2.279,2.279,0,0,1,1.694.755l1.346,1.5a3.32,3.32,0,0,0,2.47,1.106h0c1.437,0,3.717,0,3.925,0a2.2,2.2,0,0,1,2.23,2.209v.126H10.5A3.9,3.9,0,0,0,6.911,9.58S4.572,15.118,3.75,16.947c-.27.6-.8,1.077-1.2,1.086-.317-.009-.671-.381-.913-.735a2.514,2.514,0,0,1-.114-.712ZM21.324,9.926l-3.03,7.37-.018-.006a2.557,2.557,0,0,1-2.448,1.841H4.065c-.068,0-.134-.015-.2-.02a3.785,3.785,0,0,0,1.273-1.542c.825-1.835,3.173-7.394,3.173-7.394A2.379,2.379,0,0,1,10.5,8.732H20.525a.865.865,0,0,1,.8,1.194" transform="translate(0 0)" fill="#fff"/>
  </g>
</svg>
