<svg xmlns="http://www.w3.org/2000/svg" width="21.602" height="20.203" viewBox="0 0 21.602 20.203">
  <path id="home-light" d="M28.613,32.3H26.981a1.928,1.928,0,0,1-1.928-1.939v-3.6a.408.408,0,0,0-.4-.4H20.818a.4.4,0,0,0-.4.4v3.6a1.939,1.939,0,0,1-1.939,1.928H16.849a1.928,1.928,0,0,1-1.928-1.928V24.783a.4.4,0,0,0-.4-.4h-.684a1.918,1.918,0,0,1-1.765-1.163,1.888,1.888,0,0,1,.306-2.041l8.9-8.448a1.939,1.939,0,0,1,1.428-.633h0a1.928,1.928,0,0,1,1.449.653L33,21.181a1.939,1.939,0,0,1,.357,2.041A1.918,1.918,0,0,1,31.6,24.354H30.95a.408.408,0,0,0-.408.4v5.612A1.928,1.928,0,0,1,28.613,32.3Zm-7.8-7.469h3.836a1.928,1.928,0,0,1,1.928,1.928v3.6a.4.4,0,0,0,.4.4h1.633a.4.4,0,0,0,.4-.4V24.783a1.939,1.939,0,0,1,1.939-1.928H31.6a.4.4,0,0,0,.3-.653l-8.836-8.367a.571.571,0,0,0-.357-.184.388.388,0,0,0-.3.143l-.051.051L13.481,22.2a.423.423,0,0,0,.367.612h.684a1.928,1.928,0,0,1,1.928,1.928v5.622a.408.408,0,0,0,.4.4h1.633a.408.408,0,0,0,.408-.4v-3.6a1.928,1.928,0,0,1,1.918-1.928Z" transform="translate(-11.902 -12.1)" fill="#fff"/>
</svg>
