<svg xmlns="http://www.w3.org/2000/svg" width="22.577" height="19.024" viewBox="0 0 22.577 19.024">
  <path id="Path_2146" data-name="Path 2146" d="M100.487,138.927H96.933l-.847-2.373A.838.838,0,0,0,95.3,136H87.28a.835.835,0,0,0-.787.554l-.849,2.373H82.091A2.09,2.09,0,0,0,80,141.017v11.916a2.09,2.09,0,0,0,2.091,2.09h18.4a2.09,2.09,0,0,0,2.09-2.09V141.017A2.09,2.09,0,0,0,100.487,138.927Zm.209,14.006a.21.21,0,0,1-.209.209h-18.4a.21.21,0,0,1-.209-.209V141.017a.21.21,0,0,1,.209-.209h4.879l.447-1.249.6-1.678H94.56l.6,1.678.447,1.249h4.881a.21.21,0,0,1,.209.209Zm-9.407-10.452a4.181,4.181,0,1,0,4.181,4.181A4.18,4.18,0,0,0,91.289,142.481Zm0,6.69a2.509,2.509,0,1,1,2.509-2.509A2.509,2.509,0,0,1,91.289,149.17Z" transform="translate(-80 -136)" fill="#fff"/>
</svg>
