<svg id="polar-line-chart-dark" xmlns="http://www.w3.org/2000/svg" width="23.537" height="23.537" viewBox="0 0 23.537 23.537">
  <path id="Path_1838" data-name="Path 1838" d="M23.1,12.145v-.531H18.747a6.884,6.884,0,0,0-1.827-4.419L19.993,4.12l-.375-.375L16.544,6.819a6.86,6.86,0,0,0-4.419-1.834V.65h-.531V4.984A6.891,6.891,0,0,0,7.174,6.819L4.1,3.745l-.375.375L6.8,7.194a6.853,6.853,0,0,0-1.827,4.419H.63v.531H4.979A6.875,6.875,0,0,0,6.813,16.55L3.732,19.631l.375.375,3.081-3.081a6.905,6.905,0,0,0,4.405,1.827v4.363h.531V18.752a6.832,6.832,0,0,0,4.405-1.827l3.081,3.081.375-.375L16.905,16.55a6.875,6.875,0,0,0,1.834-4.405h4.349Zm-4.88-.531H12.507l4.044-4.044a6.36,6.36,0,0,1,1.671,4.044ZM16.169,7.194l-4.044,4.044V5.523A6.33,6.33,0,0,1,16.169,7.2ZM11.593,5.516v5.723L7.549,7.194A6.33,6.33,0,0,1,11.593,5.516ZM7.174,7.569l4.044,4.044H5.51A6.323,6.323,0,0,1,7.181,7.569ZM5.51,12.145h5.708l-4.03,4.03a6.292,6.292,0,0,1-1.679-4.03ZM7.564,16.55l4.03-4.03v5.694a6.323,6.323,0,0,1-4.03-1.671Zm4.561,1.671V12.527l4.03,4.03a6.36,6.36,0,0,1-4.03,1.671Zm4.405-2.04-4.03-4.03h5.708a6.367,6.367,0,0,1-1.679,4.03Z" transform="translate(-0.094 -0.097)" fill="#bababa" opacity="0.5"/>
  <path id="Path_1839" data-name="Path 1839" d="M11.769,0A11.769,11.769,0,1,0,23.537,11.769,11.784,11.784,0,0,0,11.769,0Zm0,22.467a10.7,10.7,0,1,1,10.7-10.7A10.706,10.706,0,0,1,11.769,22.467Z" fill="#fff"/>
  <path id="Path_1840" data-name="Path 1840" d="M8.294,18.22a1.316,1.316,0,0,1-1-.4c-1-1.027.019-2.91.753-4.291a5.265,5.265,0,0,0,.579-1.284,5.451,5.451,0,0,0-.648-1.51C7.336,9.522,6.526,8.013,7.771,7c1.121-.9,2.478.275,3.567,1.229.6.526,1.307,1.131,1.662,1.1a3.079,3.079,0,0,0,.946-.5c.915-.593,2.173-1.412,3.163-.434.76.746.554,1.76.374,2.659a5.226,5.226,0,0,0-.149,1.131,2.97,2.97,0,0,0,.791,1.4c.772.978,1.83,2.317.361,3.961-1.208,1.351-2.908.342-4.147-.4a4.168,4.168,0,0,0-1.332-.636,5.876,5.876,0,0,0-2.086.776,6.766,6.766,0,0,1-2.627.929ZM8.674,7.3a.767.767,0,0,0-.5.183c-.8.642-.374,1.6.367,2.971a5.834,5.834,0,0,1,.716,1.718c.044.336-.193.795-.648,1.644-.648,1.21-1.538,2.873-.853,3.582.517.538,1.774-.1,2.889-.654a6,6,0,0,1,2.4-.844,4.088,4.088,0,0,1,1.625.721c1.407.837,2.553,1.412,3.356.513,1.133-1.265.4-2.194-.386-3.178a3.339,3.339,0,0,1-.921-1.748,5.646,5.646,0,0,1,.162-1.271c.168-.819.324-1.589-.205-2.109-.591-.575-1.357-.153-2.378.513a3.127,3.127,0,0,1-1.245.605h0c-.635.049-1.32-.556-2.123-1.247C10.013,7.9,9.266,7.31,8.674,7.31Zm4.352,2.341Z" transform="translate(-1.027 -0.996)" fill="#fecc00"/>
</svg>
