<svg xmlns="http://www.w3.org/2000/svg" xmlns:xlink="http://www.w3.org/1999/xlink" width="16" height="16" viewBox="0 0 16 16">
  <defs>
    <clipPath id="clip-path">
      <rect id="Rectangle_7610" data-name="Rectangle 7610" width="16" height="16" fill="#fff"/>
    </clipPath>
  </defs>
  <g id="settings" clip-path="url(#clip-path)">
    <path id="Path_2836" data-name="Path 2836" d="M7.455,14.838a2.066,2.066,0,0,1-.7-.082A1.938,1.938,0,0,1,5.235,13.4s-.038-.115-.1-.318c-.2.1-.311.155-.311.155a1.939,1.939,0,0,1-1.966-.063,2.6,2.6,0,0,1-.692-.537,2.023,2.023,0,0,1-.438-.549,1.907,1.907,0,0,1-.1-2.024s.055-.108.155-.3c-.212-.066-.331-.108-.331-.108A1.911,1.911,0,0,1,.105,8.237,2.517,2.517,0,0,1,0,7.373a2,2,0,0,1,.083-.7,1.932,1.932,0,0,1,1.375-1.5s.116-.038.321-.1c-.1-.2-.157-.309-.157-.309a1.884,1.884,0,0,1,.065-1.943,2.526,2.526,0,0,1,.544-.685,2.04,2.04,0,0,1,.555-.433,1.967,1.967,0,0,1,2.045-.1s.109.054.3.155c.068-.211.109-.328.109-.328A1.916,1.916,0,0,1,6.674.1,2.621,2.621,0,0,1,7.547,0a2.07,2.07,0,0,1,.7.081,1.939,1.939,0,0,1,1.518,1.36s.038.115.1.318c.2-.1.311-.155.311-.155a1.947,1.947,0,0,1,1.965.063,2.577,2.577,0,0,1,.692.537,2.068,2.068,0,0,1,.438.548,1.911,1.911,0,0,1,.1,2.026s-.055.107-.155.295c.212.067.331.108.331.108A1.914,1.914,0,0,1,14.9,6.6l-.525.149.534-.121a2.481,2.481,0,0,1,.1.836,1.994,1.994,0,0,1-.083.694,1.934,1.934,0,0,1-1.375,1.5s-.116.039-.322.1c.1.2.157.307.157.307a1.886,1.886,0,0,1-.063,1.945,2.554,2.554,0,0,1-.544.684,2.047,2.047,0,0,1-.554.433,1.967,1.967,0,0,1-2.047.1s-.108-.053-.3-.153c-.068.21-.111.328-.111.328a1.915,1.915,0,0,1-1.434,1.33,2.589,2.589,0,0,1-.874.1m-1.984-3.1a.553.553,0,0,1,.211.042A.54.54,0,0,1,6,12.138c.153.555.27.9.274.911a.825.825,0,0,0,.687.64l.109.03a1.092,1.092,0,0,0,.385.036,1.538,1.538,0,0,0,.539-.053.869.869,0,0,0,.738-.659c0-.011.126-.354.284-.912a.54.54,0,0,1,.319-.355.548.548,0,0,1,.481.03c.5.287.836.45.844.454a.836.836,0,0,0,.944-.029l.1-.055a1.1,1.1,0,0,0,.3-.244,1.532,1.532,0,0,0,.344-.415.855.855,0,0,0,.049-.983c0-.009-.163-.337-.451-.841a.538.538,0,0,1-.028-.475.545.545,0,0,1,.361-.313c.563-.152.915-.267.923-.271a.823.823,0,0,0,.646-.68c0-.008.028-.1.031-.108a1.087,1.087,0,0,0,.036-.381,1.517,1.517,0,0,0-.054-.533l-.01-.034a.844.844,0,0,0-.658-.7c-.01,0-.357-.125-.921-.28a.548.548,0,0,1-.36-.316.536.536,0,0,1,.032-.474c.289-.5.455-.828.459-.835a.814.814,0,0,0-.03-.933c0-.006-.053-.091-.055-.1a1.144,1.144,0,0,0-.248-.3,1.568,1.568,0,0,0-.419-.34.88.88,0,0,0-.993-.048c-.009,0-.342.161-.852.446a.553.553,0,0,1-.479.027A.539.539,0,0,1,9,2.7c-.153-.555-.27-.9-.273-.912a.824.824,0,0,0-.687-.638l-.109-.031a1.141,1.141,0,0,0-.386-.035,1.537,1.537,0,0,0-.539.053.866.866,0,0,0-.737.659c0,.01-.126.353-.284.912a.544.544,0,0,1-.32.355.557.557,0,0,1-.479-.03c-.506-.287-.837-.451-.845-.455a.834.834,0,0,0-.943.029l-.1.055a1.069,1.069,0,0,0-.3.245,1.488,1.488,0,0,0-.343.414.855.855,0,0,0-.05.983c0,.009.164.338.451.842a.532.532,0,0,1,.028.474.544.544,0,0,1-.361.314c-.562.15-.913.267-.921.27a.822.822,0,0,0-.647.68l-.031.109a1.058,1.058,0,0,0-.036.381,1.489,1.489,0,0,0,.054.533.867.867,0,0,0,.668.73c.01,0,.357.125.92.279a.545.545,0,0,1,.36.316.536.536,0,0,1-.031.474c-.289.5-.455.828-.459.836a.81.81,0,0,0,.03.932c0,.006.051.091.055.1a1.123,1.123,0,0,0,.248.295,1.58,1.58,0,0,0,.417.34.884.884,0,0,0,.994.049c.01,0,.343-.162.852-.447a.551.551,0,0,1,.269-.069" transform="translate(0.498 0.492)" fill="#fff"/>
    <path id="Path_2837" data-name="Path 2837" d="M7.085,9.721a2.666,2.666,0,1,1,2.7-2.666,2.682,2.682,0,0,1-2.7,2.666m0-4.249a1.583,1.583,0,1,0,1.6,1.583,1.594,1.594,0,0,0-1.6-1.583" transform="translate(0.914 0.856)" fill="#fff"/>
  </g>
</svg>
