<svg id="Слой_2" data-name="Слой 2" xmlns="http://www.w3.org/2000/svg" width="20.76" height="20.759" viewBox="0 0 20.76 20.759">
  <g id="Слой_1" data-name="Слой 1" transform="translate(0 0)">
    <path id="Path_7" data-name="Path 7" d="M19.843,4.2l-3.19-3.175A3.5,3.5,0,0,0,14.18,0H4.228A4.228,4.228,0,0,0,0,4.228V16.516a4.243,4.243,0,0,0,4.228,4.243H16.516a4.259,4.259,0,0,0,4.243-4.243V6.564A3.373,3.373,0,0,0,19.843,4.2ZM13.219,1.526A.473.473,0,0,1,13.738,2V5.724a.458.458,0,0,1-.473.458H6.884a.458.458,0,0,1-.473-.458V2a.473.473,0,0,1,.473-.473ZM5.693,19.233a.641.641,0,0,1-.641-.656V11.784a.641.641,0,0,1,.641-.641h9.418a.641.641,0,0,1,.641.641v6.793a.641.641,0,0,1-.641.656Zm13.539-2.717a2.717,2.717,0,0,1-2.03,2.61,2.076,2.076,0,0,0,.076-.55V11.784a2.183,2.183,0,0,0-2.167-2.167H5.693a2.183,2.183,0,0,0-2.167,2.167v6.793a1.755,1.755,0,0,0,.092.565,2.7,2.7,0,0,1-2.091-2.625V4.3a2.717,2.717,0,0,1,2.7-2.778h.748A2.366,2.366,0,0,0,4.884,2V5.724a2,2,0,0,0,2,1.984h6.335a2,2,0,0,0,2.045-1.984V1.847a1.908,1.908,0,0,1,.366.244l3.144,3.19a1.816,1.816,0,0,1,.534,1.282Z" transform="translate(0 0)" fill="#fff"/>
    <rect id="Rectangle_133" data-name="Rectangle 133" width="1.526" height="2.946" transform="translate(11.219 2.381)" fill="#fff"/>
  </g>
</svg>
