<svg xmlns="http://www.w3.org/2000/svg" width="23.979" height="24.632" viewBox="0 0 23.979 24.632">
  <g id="Слой_2" data-name="Слой 2" transform="translate(0 24.632) rotate(-90)">
    <g id="Слой_1" data-name="Слой 1" transform="translate(0 0)">
      <path id="Path_1" data-name="Path 1" d="M7.1,3.166H4.764V.784A.8.8,0,0,0,3.981,0,.784.784,0,0,0,3.2.784V3.166H.784a.784.784,0,1,0,0,1.567H3.2V7.1a.784.784,0,1,0,1.567,0V4.733H7.1a.784.784,0,0,0,0-1.567Z" transform="translate(3.21 12.945)" fill="#fff"/>
      <path id="Path_2" data-name="Path 2" d="M23.739,8.15h-.11L15.982.957V.863A2.805,2.805,0,0,0,13.9,0H7.456A4.2,4.2,0,0,0,3.194,4.2v6.77a6.018,6.018,0,0,1,.831-.439A7.068,7.068,0,1,0,12.6,21.314h7.836a4.2,4.2,0,0,0,4.2-4.2V10.077a2.664,2.664,0,0,0-.893-1.928ZM16.64,3.7,20.7,7.476h-.266c-3.134,0-3.777-1.316-3.792-3.322Zm-9.5,18.712A5.516,5.516,0,1,1,12.6,16.894,5.516,5.516,0,0,1,7.143,22.411ZM23,17.114a2.633,2.633,0,0,1-2.57,2.633h-6.8a8.681,8.681,0,0,1-.47.831,6.88,6.88,0,0,0,1-3.683A7.084,7.084,0,0,0,7.143,9.811a6.754,6.754,0,0,0-2.382.423h0V4.2a2.633,2.633,0,0,1,2.7-2.633H13.9A1.238,1.238,0,0,1,15.12,2.853V4.122c0,3.291,1.755,4.905,5.391,4.936h1.426a1.113,1.113,0,0,1,.752.266l.094.094a1.066,1.066,0,0,1,.3.737Z" transform="translate(0 0)" fill="#fff"/>
    </g>
  </g>
</svg>
